<?xml version="1.0" encoding="UTF-8"?>
<svg width="429" height="89.18918918918918" viewBox="0 0 370 76.92307692307692" xmlns="http://www.w3.org/2000/svg" xmlns:xlink="http://www.w3.org/1999/xlink"><defs id="SvgjsDefs1433"></defs><g id="SvgjsG1434" featurekey="symbolFeature-0" transform="matrix(3.846153846153846,0,0,3.846153846153846,0,0)" fill="#fcfc03"><g xmlns="http://www.w3.org/2000/svg"><polygon points="12.983,17.102 3.136,12.551 0,14 12.984,20 26,14 22.855,12.551  "></polygon><polygon points="12.983,13.102 3.136,8.551 0,10 12.984,16 26,10 22.855,8.551  "></polygon><polygon points="0,6 12.984,12 26,6 12.984,0  "></polygon></g></g><g id="SvgjsG1435" featurekey="nameFeature-0" transform="matrix(1.7013488880484604,0,0,1.7013488880484604,119.9697525608998,-4.01348563541913)" fill="#ffffff"><path d="M28.44 10.760000000000002 q0.2 0.36 0.18 0.76 t-0.26 0.72 l-11.08 16 l0 10.28 q0 0.56 -0.42 0.98 t-0.98 0.42 l-3.08 0 q-0.6 0 -1.02 -0.42 t-0.42 -0.98 l0 -11.72 q0 -0.4 0.28 -0.8 l10.68 -15.4 q0.2 -0.28 0.5 -0.44 t0.66 -0.16 l3.72 0 q0.4 0 0.74 0.2 t0.5 0.56 z M11.6 19.56 q-0.16 0.36 -0.5 0.56 t-0.74 0.2 l-3.72 0 q-0.72 0 -1.2 -0.6 l-5.2 -7.48 q-0.2 -0.32 -0.22 -0.72 t0.14 -0.76 t0.5 -0.56 t0.74 -0.2 l3.76 0 q0.68 0 1.16 0.6 l5.2 7.48 q0.2 0.32 0.22 0.72 t-0.14 0.76 z M36.32 21.88 q0.6 0 1 0.42 t0.4 1.02 l0 14.96 q0 0.56 -0.4 0.98 t-1 0.42 l-3.04 0 q-0.56 0 -0.98 -0.42 t-0.42 -0.98 l0 -14.96 q0 -0.6 0.42 -1.02 t0.98 -0.42 l3.04 0 z M36.32 10 q0.6 0 1 0.42 t0.4 0.98 l0 7.4 q0 0.6 -0.4 1.02 t-1 0.42 l-3.04 0 q-0.56 0 -0.98 -0.42 t-0.42 -1.02 l0 -7.4 q0 -0.56 0.42 -0.98 t0.98 -0.42 l3.04 0 z M65.36 33.92 q0.6 0 1 0.42 t0.4 1.02 l0 2.92 q0 0.56 -0.4 0.98 t-1 0.42 l-19.76 0 q-0.56 0 -0.98 -0.42 t-0.42 -0.98 l0 -2.92 q0 -0.6 0.42 -1.02 t0.98 -0.42 l19.76 0 z M45.6 27.72 q-0.56 0 -0.98 -0.42 t-0.42 -0.98 l0 -3 q0 -0.56 0.42 -0.98 t0.98 -0.42 l17.96 0 q0.6 0 1.02 0.42 t0.42 0.98 l0 3 q0 0.56 -0.42 0.98 t-1.02 0.42 l-17.96 0 z M65.36 10 q0.6 0 1 0.42 t0.4 0.98 l0 2.92 q0 0.6 -0.4 1.02 t-1 0.42 l-19.76 0 q-0.56 0 -0.98 -0.42 t-0.42 -1.02 l0 -2.92 q0 -0.56 0.42 -0.98 t0.98 -0.42 l19.76 0 z M76.03999999999999 10 q0.56 0 0.98 0.42 t0.42 0.98 l0 26.8 q0 0.56 -0.42 0.98 t-0.98 0.42 l-3.04 0 q-0.56 0 -0.98 -0.42 t-0.42 -0.98 l0 -26.8 q0 -0.56 0.42 -0.98 t0.98 -0.42 l3.04 0 z M90.64 33.88 q0.6 0 1 0.42 t0.4 0.98 l0 2.92 q0 0.56 -0.4 0.98 t-1 0.42 l-9.32 0 q-0.6 0 -1 -0.42 t-0.4 -0.98 l0 -2.92 q0 -0.56 0.4 -0.98 t1 -0.42 l9.32 0 z M113.80000000000001 11.04 q2.44 0.92 4.4 2.96 q4.2 4.24 4.2 10.82 t-4.2 10.86 q-1.96 2.04 -4.4 2.96 q-2.52 1.04 -5.16 1.04 l-11.32 0 q-0.56 0 -0.98 -0.42 t-0.42 -0.98 l0 -2.88 q0 -0.6 0.42 -1.02 t0.98 -0.42 l11.2 0 q3.56 0 5.78 -2.6 t2.22 -6.52 t-2.22 -6.52 t-5.78 -2.6 l-11.2 0 q-0.56 0 -0.98 -0.42 t-0.42 -1.02 l0 -2.88 q0 -0.56 0.42 -0.98 t0.98 -0.42 l11.32 0 q2.64 0 5.16 1.04 z M129.2 37.56 q-3.16 -2.56 -3.52 -6.16 q-0.04 -0.6 0.38 -1.06 t1.02 -0.46 l3.04 0 q0.52 0 0.9 0.32 t0.46 0.84 q0.24 1.24 1.56 2.2 q1.44 1.04 3.52 1.04 q2.28 0 3.52 -1.12 q1.08 -0.92 1.08 -2.38 t-1.12 -2.54 q-1.28 -1.16 -3.2 -1.16 l-3.08 0 q-0.56 0 -0.96 -0.42 t-0.4 -0.98 l0 -2.76 q0 -0.56 0.4 -0.98 t0.96 -0.42 l2.72 0 q1.64 0 2.8 -0.92 q1 -0.76 1 -2.04 t-0.88 -2.06 t-2.94 -0.78 t-3.12 0.8 t-1.26 1.84 q-0.08 0.48 -0.46 0.8 t-0.9 0.32 l-2.92 0 q-0.6 0 -1.02 -0.46 t-0.38 -1.06 q0.36 -3.24 2.92 -5.48 q2.84 -2.48 7 -2.48 q4.36 0 7.06 2.32 t2.7 6.12 q0 2.36 -1.64 4.48 q-0.64 0.8 -0.96 1.12 q1.12 0.76 1.92 1.88 q1.56 2.08 1.56 4.56 q0 2.24 -0.84 3.98 t-2.28 3.02 q-2.92 2.52 -7.26 2.52 t-7.38 -2.44 z"></path></g></svg>