<svg width="100" height="100" xmlns="http://www.w3.org/2000/svg">

 <g>
  <title>Layer 1</title>
  <g fill="#fcfc03" transform="matrix(3.84615 0 0 3.84615 0 0)" featurekey="symbolFeature-0" id="SvgjsG1434">
   <g id="svg_1" xmlns="http://www.w3.org/2000/svg">
    <polygon id="svg_2" points="12.983000546693802,20.222000122070312 3.135999709367752,15.670999526977539 5.960464477539063e-8,17.1200008392334 12.984000951051712,23.1200008392334 25.999999791383743,17.1200008392334 22.85499933362007,15.670999526977539 "/>
    <polygon id="svg_3" points="12.983000546693802,16.222000122070312 3.135999709367752,11.670999526977539 5.960464477539063e-8,13.119999885559082 12.984000951051712,19.1200008392334 25.999999791383743,13.119999885559082 22.85499933362007,11.670999526977539 "/>
    <polygon id="svg_4" points="5.960464477539063e-8,9.119999885559082 12.984000951051712,15.119999885559082 25.999999791383743,9.119999885559082 12.984000951051712,3.120000123977661 "/>
   </g>
  </g>
  <g fill="#ffffff" transform="matrix(1.7013488880484604,0,0,1.7013488880484604,119.9697525608998,-4.01348563541913)" featurekey="nameFeature-0" id="SvgjsG1435">
   <path id="svg_5" d="m28.44,10.76q0.2,0.36 0.18,0.76t-0.26,0.72l-11.08,16l0,10.28q0,0.56 -0.42,0.98t-0.98,0.42l-3.08,0q-0.6,0 -1.02,-0.42t-0.42,-0.98l0,-11.72q0,-0.4 0.28,-0.8l10.68,-15.4q0.2,-0.28 0.5,-0.44t0.66,-0.16l3.72,0q0.4,0 0.74,0.2t0.5,0.56zm-16.84,8.8q-0.16,0.36 -0.5,0.56t-0.74,0.2l-3.72,0q-0.72,0 -1.2,-0.6l-5.2,-7.48q-0.2,-0.32 -0.22,-0.72t0.14,-0.76t0.5,-0.56t0.74,-0.2l3.76,0q0.68,0 1.16,0.6l5.2,7.48q0.2,0.32 0.22,0.72t-0.14,0.76zm24.72,2.32q0.6,0 1,0.42t0.4,1.02l0,14.96q0,0.56 -0.4,0.98t-1,0.42l-3.04,0q-0.56,0 -0.98,-0.42t-0.42,-0.98l0,-14.96q0,-0.6 0.42,-1.02t0.98,-0.42l3.04,0zm0,-11.88q0.6,0 1,0.42t0.4,0.98l0,7.4q0,0.6 -0.4,1.02t-1,0.42l-3.04,0q-0.56,0 -0.98,-0.42t-0.42,-1.02l0,-7.4q0,-0.56 0.42,-0.98t0.98,-0.42l3.04,0zm29.04,23.92q0.6,0 1,0.42t0.4,1.02l0,2.92q0,0.56 -0.4,0.98t-1,0.42l-19.76,0q-0.56,0 -0.98,-0.42t-0.42,-0.98l0,-2.92q0,-0.6 0.42,-1.02t0.98,-0.42l19.76,0zm-19.76,-6.2q-0.56,0 -0.98,-0.42t-0.42,-0.98l0,-3q0,-0.56 0.42,-0.98t0.98,-0.42l17.96,0q0.6,0 1.02,0.42t0.42,0.98l0,3q0,0.56 -0.42,0.98t-1.02,0.42l-17.96,0zm19.76,-17.72q0.6,0 1,0.42t0.4,0.98l0,2.92q0,0.6 -0.4,1.02t-1,0.42l-19.76,0q-0.56,0 -0.98,-0.42t-0.42,-1.02l0,-2.92q0,-0.56 0.42,-0.98t0.98,-0.42l19.76,0zm10.68,0q0.56,0 0.98,0.42t0.42,0.98l0,26.8q0,0.56 -0.42,0.98t-0.98,0.42l-3.04,0q-0.56,0 -0.98,-0.42t-0.42,-0.98l0,-26.8q0,-0.56 0.42,-0.98t0.98,-0.42l3.04,0zm14.6,23.88q0.6,0 1,0.42t0.4,0.98l0,2.92q0,0.56 -0.4,0.98t-1,0.42l-9.32,0q-0.6,0 -1,-0.42t-0.4,-0.98l0,-2.92q0,-0.56 0.4,-0.98t1,-0.42l9.32,0zm23.16,-22.84q2.44,0.92 4.4,2.96q4.2,4.24 4.2,10.82t-4.2,10.86q-1.96,2.04 -4.4,2.96q-2.52,1.04 -5.16,1.04l-11.32,0q-0.56,0 -0.98,-0.42t-0.42,-0.98l0,-2.88q0,-0.6 0.42,-1.02t0.98,-0.42l11.2,0q3.56,0 5.78,-2.6t2.22,-6.52t-2.22,-6.52t-5.78,-2.6l-11.2,0q-0.56,0 -0.98,-0.42t-0.42,-1.02l0,-2.88q0,-0.56 0.42,-0.98t0.98,-0.42l11.32,0q2.64,0 5.16,1.04zm15.4,26.52q-3.16,-2.56 -3.52,-6.16q-0.04,-0.6 0.38,-1.06t1.02,-0.46l3.04,0q0.52,0 0.9,0.32t0.46,0.84q0.24,1.24 1.56,2.2q1.44,1.04 3.52,1.04q2.28,0 3.52,-1.12q1.08,-0.92 1.08,-2.38t-1.12,-2.54q-1.28,-1.16 -3.2,-1.16l-3.08,0q-0.56,0 -0.96,-0.42t-0.4,-0.98l0,-2.76q0,-0.56 0.4,-0.98t0.96,-0.42l2.72,0q1.64,0 2.8,-0.92q1,-0.76 1,-2.04t-0.88,-2.06t-2.94,-0.78t-3.12,0.8t-1.26,1.84q-0.08,0.48 -0.46,0.8t-0.9,0.32l-2.92,0q-0.6,0 -1.02,-0.46t-0.38,-1.06q0.36,-3.24 2.92,-5.48q2.84,-2.48 7,-2.48q4.36,0 7.06,2.32t2.7,6.12q0,2.36 -1.64,4.48q-0.64,0.8 -0.96,1.12q1.12,0.76 1.92,1.88q1.56,2.08 1.56,4.56q0,2.24 -0.84,3.98t-2.28,3.02q-2.92,2.52 -7.26,2.52t-7.38,-2.44z"/>
  </g>
 </g>
</svg>